<?xml version="1.0" encoding="UTF-8" standalone="no" ?>
<!DOCTYPE svg PUBLIC "-//W3C//DTD SVG 1.1//EN" "http://www.w3.org/Graphics/SVG/1.1/DTD/svg11.dtd">
<svg xmlns="http://www.w3.org/2000/svg" xmlns:xlink="http://www.w3.org/1999/xlink" version="1.1" width="1080" height="1080" viewBox="0 0 1080 1080" xml:space="preserve">
<desc>Created with Fabric.js 5.2.4</desc>
<defs>
</defs>
<g transform="matrix(1 0 0 1 540 540)" id="25d49ebf-b901-4d54-b883-29c8c304bbe9"  >
</g>
<g transform="matrix(1 0 0 1 540 540)" id="0b5b7253-2ab5-41e4-a1cf-6a2dc55a0a44"  >
<rect style="stroke: none; stroke-width: 1; stroke-dasharray: none; stroke-linecap: butt; stroke-dashoffset: 0; stroke-linejoin: miter; stroke-miterlimit: 4; fill: rgb(255,255,255); fill-rule: nonzero; opacity: 1; visibility: hidden;" vector-effect="non-scaling-stroke"  x="-540" y="-540" rx="0" ry="0" width="1080" height="1080" />
</g>
<g transform="matrix(0 0 0 0 0 0)"  >
<g style=""   >
</g>
</g>
<g transform="matrix(5.23 0 0 5.23 506.83 486.24)"  >
<path style="stroke: none; stroke-width: 1; stroke-dasharray: none; stroke-linecap: butt; stroke-dashoffset: 0; stroke-linejoin: miter; stroke-miterlimit: 4; fill: rgb(0,0,0); fill-rule: nonzero; opacity: 1;" vector-effect="non-scaling-stroke"  transform=" translate(-40.31, -58.18)" d="M 72.97 56.78 L 57.16 49.88 C 53.33 48.220000000000006 50.279999999999994 45.17 48.62 41.34 L 41.72 25.53 C 41.18 24.3 39.44 24.3 38.91 25.53 L 32.01 41.34 C 30.339999999999996 45.17 27.29 48.220000000000006 23.47 49.88 L 7.629999999999999 56.790000000000006 C 6.409999999999999 57.330000000000005 6.399999999999999 59.06000000000001 7.629999999999999 59.60000000000001 L 23.75 66.72000000000001 C 27.56 68.41000000000001 30.6 71.47000000000001 32.25 75.31000000000002 L 38.92 90.82000000000002 C 39.45 92.05000000000003 41.2 92.06000000000002 41.74 90.82000000000002 L 48.63 75.02000000000002 C 50.29 71.20000000000003 53.34 68.15000000000002 57.17 66.48000000000002 L 72.98 59.58000000000002 C 74.21000000000001 59.05000000000002 74.21000000000001 57.31000000000002 72.98 56.77000000000002 Z M 55.4 56.2 C 55.15 56.760000000000005 54.6 57.1 54.019999999999996 57.1 C 53.81999999999999 57.1 53.62 57.06 53.419999999999995 56.980000000000004 C 48.08 54.64 43.85999999999999 50.42 41.529999999999994 45.080000000000005 C 41.18999999999999 44.32000000000001 41.53999999999999 43.43000000000001 42.3 43.10000000000001 C 43.059999999999995 42.77000000000001 43.94 43.12000000000001 44.279999999999994 43.88000000000001 C 46.3 48.52000000000001 49.98 52.20000000000001 54.61999999999999 54.23000000000001 C 55.37999999999999 54.56000000000001 55.72999999999999 55.44000000000001 55.39999999999999 56.20000000000001 Z" stroke-linecap="round" />
</g>
<g transform="matrix(5.23 0 0 5.23 682.44 326.63)"  >
<path style="stroke: none; stroke-width: 1; stroke-dasharray: none; stroke-linecap: butt; stroke-dashoffset: 0; stroke-linejoin: miter; stroke-miterlimit: 4; fill: rgb(0,0,0); fill-rule: nonzero; opacity: 1;" vector-effect="non-scaling-stroke"  transform=" translate(-73.89, -27.65)" d="M 92.76 26.84 L 83.63000000000001 22.86 C 81.42000000000002 21.89 79.66000000000001 20.13 78.69000000000001 17.919999999999998 L 74.71000000000001 8.789999999999997 C 74.4 8.079999999999998 73.39000000000001 8.079999999999998 73.08000000000001 8.789999999999997 L 69.10000000000001 17.919999999999998 C 68.13000000000001 20.13 66.37 21.889999999999997 64.16000000000001 22.86 L 55.02000000000001 26.85 C 54.31000000000001 27.16 54.31000000000001 28.16 55.01000000000001 28.470000000000002 L 64.32000000000001 32.580000000000005 C 66.52000000000001 33.56 68.28 35.330000000000005 69.23 37.540000000000006 L 73.09 46.510000000000005 C 73.39 47.220000000000006 74.4 47.220000000000006 74.71000000000001 46.510000000000005 L 78.69000000000001 37.39000000000001 C 79.66000000000001 35.18000000000001 81.42000000000002 33.42000000000001 83.63000000000001 32.45000000000001 L 92.76 28.47000000000001 C 93.47 28.16000000000001 93.47 27.15000000000001 92.76 26.84000000000001 Z M 80.32000000000001 28.16 C 80.03 28.63 79.54 28.88 79.03 28.88 C 78.77 28.88 78.5 28.81 78.26 28.669999999999998 C 76.19000000000001 27.409999999999997 74.48 25.759999999999998 73.16000000000001 23.74 C 72.71000000000001 23.04 72.91000000000001 22.119999999999997 73.60000000000001 21.659999999999997 C 74.29 21.209999999999997 75.22000000000001 21.399999999999995 75.67 22.099999999999998 C 76.75 23.74 78.14 25.08 79.81 26.099999999999998 C 80.52 26.529999999999998 80.75 27.45 80.32000000000001 28.159999999999997 Z" stroke-linecap="round" />
</g>
</svg>